name analog
datacolumns 19
datarows 28
range 0.0 0.0135
endheader
time	ground_force_vx	ground_force_vy	ground_force_vz	ground_force_px	ground_force_py	ground_force_pz	l_ground_force_vx	l_ground_force_vy	l_ground_force_vz	l_ground_force_px	l_ground_force_py	l_ground_force_pz	ground_torque_x	ground_torque_y	ground_torque_z	l_ground_torque_x	l_ground_torque_y	l_ground_torque_z
0.0	-0.0	-0.0	-0.0	-1.3381576538085938	17.408266067504883	-316.5595703125	-0.3187606036663055	-20.438234329223636	-409.2235107421875	-0.0	-0.0	-0.0	-0.0	-0.0	-0.0	113659.296875	14865.025390625	-2556.525390625
0.0005	-0.0	-0.0	-0.0	-1.658113956451416	17.073043823242188	-316.3394470214844	-0.3833089768886566	-20.884254455566406	-409.71429443359375	-0.0	-0.0	-0.0	-0.0	-0.0	-0.0	113468.34375	14699.90234375	-2497.3564453125
0.001	-0.0	-0.0	-0.0	-1.058192014694214	17.22681427001953	-315.43853759765625	-0.1895091831684112	-20.590988159179688	-409.4121398925781	-0.0	-0.0	-0.0	-0.0	-0.0	-0.0	113301.8671875	14834.8642578125	-2518.72412109375
0.0015	-0.0	-0.0	-0.0	-1.325784683227539	17.318618774414062	-317.0576171875	-0.1008370220661163	-20.50651359558105	-409.22076416015625	-0.0	-0.0	-0.0	-0.0	-0.0	-0.0	113429.0	14958.6494140625	-2510.50390625
0.002	-0.0	-0.0	-0.0	-1.2489471435546875	17.021488189697266	-316.6551818847656	-0.7254860997200012	-20.719301223754883	-407.6655883789063	-0.0	-0.0	-0.0	-0.0	-0.0	-0.0	113325.65625	14770.6435546875	-2463.83056640625
0.0025	-0.0	-0.0	-0.0	-1.045651078224182	17.546262741088867	-315.734375	-0.3548431396484375	-20.807506561279297	-408.5073852539063	-0.0	-0.0	-0.0	-0.0	-0.0	-0.0	113301.3671875	14635.1904296875	-2471.729248046875
0.003	-0.0	-0.0	-0.0	-0.8528000116348267	16.66738510131836	-316.3504333496094	-0.076481707394123	-20.13425064086914	-406.49652099609375	-0.0	-0.0	-0.0	-0.0	-0.0	-0.0	113463.15625	14724.3076171875	-2530.701171875
0.0035	-0.0	-0.0	-0.0	-0.6244735717773438	17.33045768737793	-317.6639404296875	-0.1651650667190551	-20.73119163513184	-407.1590270996094	-0.0	-0.0	-0.0	-0.0	-0.0	-0.0	113569.5234375	14603.28125	-2450.129638671875
0.004	-0.0	-0.0	-0.0	-0.6370145082473755	16.986316680908203	-317.0619506835937	-0.317963182926178	-20.81943893432617	-409.060546875	-0.0	-0.0	-0.0	-0.0	-0.0	-0.0	113700.7421875	14795.83203125	-2357.195068359375
0.0045000000000000005	-0.0	-0.0	-0.0	-0.6382052898406982	16.99761962890625	-315.64324951171875	0.1133746802806854	-21.10888290405273	-409.6033935546875	-0.0	-0.0	-0.0	-0.0	-0.0	-0.0	113913.2890625	14661.451171875	-2446.77783203125
0.005	-0.0	-0.0	-0.0	-0.2937488257884979	17.367820739746094	-316.9057922363281	0.2682491540908813	-20.969188690185547	-411.9015197753906	-0.0	-0.0	-0.0	-0.0	-0.0	-0.0	113861.25	14620.564453125	-2399.6494140625
0.0055	-0.0	-0.0	-0.0	0.0252887457609176	16.48842430114746	-315.8429870605469	0.1650254130363464	-21.57517433166504	-411.9013366699219	-0.0	-0.0	-0.0	-0.0	-0.0	-0.0	114338.3828125	14490.4169921875	-2450.8974609375
0.006	-0.0	-0.0	-0.0	0.7014288902282715	17.265954971313477	-317.30621337890625	0.2395954728126526	-21.65119361877441	-411.4963684082031	-0.0	-0.0	-0.0	-0.0	-0.0	-0.0	114332.9375	14610.806640625	-2408.116455078125
0.006500000000000001	-0.0	-0.0	-0.0	0.1275327801704406	17.202167510986328	-317.5093688964844	0.4310805201530456	-21.68987846374512	-412.2989807128906	-0.0	-0.0	-0.0	-0.0	-0.0	-0.0	114297.34375	14529.818359375	-2289.33349609375
0.007	-0.0	-0.0	-0.0	0.7009363770484924	17.354955673217773	-316.348388671875	0.2649140954017639	-21.6637020111084	-414.0986328125	-0.0	-0.0	-0.0	-0.0	-0.0	-0.0	114363.140625	14430.1962890625	-2497.5009765625
0.0075	-0.0	-0.0	-0.0	1.325075626373291	17.252973556518555	-317.5581970214844	0.2024966925382614	-22.16874313354492	-411.6991271972656	-0.0	-0.0	-0.0	-0.0	-0.0	-0.0	114483.3125	14625.939453125	-2281.23291015625
0.008	-0.0	-0.0	-0.0	0.6244735717773438	16.845645904541016	-316.9017028808594	0.4435539245605469	-21.827978134155277	-414.5941162109375	-0.0	-0.0	-0.0	-0.0	-0.0	-0.0	114428.6171875	14623.4091796875	-2280.72265625
0.0085	-0.0	-0.0	-0.0	0.6373205780982971	16.845645904541016	-314.3810119628906	0.684490978717804	-22.004642486572266	-413.3438720703125	-0.0	-0.0	-0.0	-0.0	-0.0	-0.0	114484.8359375	14569.55078125	-2293.44580078125
0.009000000000000001	-0.0	-0.0	-0.0	1.185508370399475	17.124921798706055	-317.0025329589844	0.9379098415374756	-22.16874313354492	-413.8948669433594	-0.0	-0.0	-0.0	-0.0	-0.0	-0.0	114692.40625	14525.7001953125	-2378.1728515625
0.0095	-0.0	-0.0	-0.0	1.2489471435546875	16.401254653930664	-314.2789611816406	0.9251190423965454	-22.16872978210449	-415.1911010742188	-0.0	-0.0	-0.0	-0.0	-0.0	-0.0	115042.328125	14442.046875	-2267.916748046875
0.01	-0.0	-0.0	-0.0	1.8230615854263303	16.795331954956055	-314.1307983398437	1.0137274265289309	-22.18138885498047	-413.595458984375	-0.0	-0.0	-0.0	-0.0	-0.0	-0.0	115060.734375	14288.7568359375	-2233.962890625
0.0105	-0.0	-0.0	-0.0	1.4143788814544678	16.526344299316406	-314.7793884277344	0.4562930464744568	-22.5976676940918	-415.0911560058594	-0.0	-0.0	-0.0	-0.0	-0.0	-0.0	115028.2578125	14382.859375	-2247.2578125
0.011	-0.0	-0.0	-0.0	2.2172346115112305	16.223716735839844	-312.314208984375	0.6713530421257019	-22.38355255126953	-414.4932861328125	-0.0	-0.0	-0.0	-0.0	-0.0	-0.0	115090.9765625	14236.8408203125	-2225.73828125
0.0115	-0.0	-0.0	-0.0	1.9887433052062988	15.95652198791504	-313.7702331542969	0.924596667289734	-22.875316619873047	-415.5875854492188	-0.0	-0.0	-0.0	-0.0	-0.0	-0.0	115015.375	14217.5703125	-2331.483642578125
0.012	-0.0	-0.0	-0.0	2.4848012924194336	16.211090087890625	-311.3070373535156	0.709686279296875	-22.33378028869629	-414.6451721191406	-0.0	-0.0	-0.0	-0.0	-0.0	-0.0	115069.8046875	14040.080078125	-2191.71826171875
0.0125	-0.0	-0.0	-0.0	3.030444860458374	16.565134048461914	-314.1741638183594	1.0015804767608645	-22.962188720703125	-415.4397277832031	-0.0	-0.0	-0.0	-0.0	-0.0	-0.0	115133.84375	14122.2392578125	-2225.129150390625
0.013000000000000001	-0.0	-0.0	-0.0	3.082855701446533	16.297704696655273	-311.8057556152344	0.7872034311294556	-23.01508903503418	-415.6870422363281	-0.0	-0.0	-0.0	-0.0	-0.0	-0.0	115353.0	14152.80859375	-2137.353759765625
0.0135	-0.0	-0.0	-0.0	2.9603099822998047	16.15580940246582	-313.1661376953125	1.2160602807998655	-23.039072036743164	-415.9849243164063	-0.0	-0.0	-0.0	-0.0	-0.0	-0.0	115412.28125	14084.5546875	-2132.77783203125
